<?xml version="1.0" encoding="UTF-8" standalone="no"?>
<svg
   xmlns:dc="http://purl.org/dc/elements/1.1/"
   xmlns:cc="http://creativecommons.org/ns#"
   xmlns:rdf="http://www.w3.org/1999/02/22-rdf-syntax-ns#"
   xmlns:svg="http://www.w3.org/2000/svg"
   xmlns="http://www.w3.org/2000/svg"
   xmlns:sodipodi="http://sodipodi.sourceforge.net/DTD/sodipodi-0.dtd"
   xmlns:inkscape="http://www.inkscape.org/namespaces/inkscape"
   version="1.1"
   x="0px"
   y="0px"
   viewBox="0 0 100 125"
   style="enable-background:new 0 0 100 100;"
   xml:space="preserve"
   id="svg280"
   sodipodi:docname="fotovoltaicas.svg"
   inkscape:version="1.0.1 (0767f8302a, 2020-10-17)"><metadata
     id="metadata286"><rdf:RDF><cc:Work
         rdf:about=""><dc:format>image/svg+xml</dc:format><dc:type
           rdf:resource="http://purl.org/dc/dcmitype/StillImage" /></cc:Work></rdf:RDF></metadata><defs
     id="defs284" /><sodipodi:namedview
     pagecolor="#ffffff"
     bordercolor="#666666"
     borderopacity="1"
     objecttolerance="10"
     gridtolerance="10"
     guidetolerance="10"
     inkscape:pageopacity="0"
     inkscape:pageshadow="2"
     inkscape:window-width="1848"
     inkscape:window-height="1016"
     id="namedview282"
     showgrid="false"
     inkscape:zoom="6.896"
     inkscape:cx="50"
     inkscape:cy="74.100928"
     inkscape:window-x="72"
     inkscape:window-y="27"
     inkscape:window-maximized="1"
     inkscape:current-layer="svg280" /><g
     id="g272"><path
       d="M76.9,52.2c-0.4,8.5-4.8,16-11.4,20.7l22.5,2.5c2.4,0.3,3.9-2.4,2.5-4.4L76.9,52.2z"
       id="path260" /><path
       d="M76.8,48.6l13.8-18.8c1.4-1.9-0.1-4.6-2.5-4.4l-23.4,2.5c-0.2,0-0.4,0-0.6,0C71.2,32.3,76.1,39.8,76.8,48.6z"
       id="path262" /><path
       d="M22.9,48.5c0.7-8.8,5.7-16.4,12.8-20.8c-0.2,0-0.4,0-0.7,0l-23.4-2.6c-2.4-0.3-3.9,2.4-2.5,4.4L22.9,48.5z"
       id="path264" /><path
       d="M49.9,23.8c4.5,0,8.7,1.1,12.4,3c-0.1-0.2-0.2-0.3-0.3-0.5L52.4,4.6c-1-2.2-4.1-2.2-5,0l-9.5,21.5   c-0.1,0.2-0.2,0.4-0.4,0.6C41.2,24.9,45.4,23.8,49.9,23.8z"
       id="path266" /><path
       d="M22.9,52L9,70.9c-1.4,1.9,0.1,4.6,2.5,4.4l22.6-2.4C27.6,68.1,23.2,60.6,22.9,52z"
       id="path268" /><path
       d="M49.9,77.9c-4.2,0-8.2-1-11.7-2.7l9.1,20.7c1,2.2,4.1,2.2,5,0l9.2-20.7C57.9,76.9,54,77.9,49.9,77.9z"
       id="path270" /></g><circle
     cx="49.9"
     cy="50.8"
     r="21.7"
     id="circle274" /></svg>
