<?xml version="1.0" encoding="UTF-8" standalone="no"?>
<svg
   xmlns:dc="http://purl.org/dc/elements/1.1/"
   xmlns:cc="http://creativecommons.org/ns#"
   xmlns:rdf="http://www.w3.org/1999/02/22-rdf-syntax-ns#"
   xmlns:svg="http://www.w3.org/2000/svg"
   xmlns="http://www.w3.org/2000/svg"
   xmlns:sodipodi="http://sodipodi.sourceforge.net/DTD/sodipodi-0.dtd"
   xmlns:inkscape="http://www.inkscape.org/namespaces/inkscape"
   version="1.1"
   x="0px"
   y="0px"
   viewBox="0 0 50 62.5"
   enable-background="new 0 0 50 50"
   xml:space="preserve"
   id="svg70"
   sodipodi:docname="geotermicas.svg"
   inkscape:version="1.0.1 (0767f8302a, 2020-10-17)"><metadata
     id="metadata76"><rdf:RDF><cc:Work
         rdf:about=""><dc:format>image/svg+xml</dc:format><dc:type
           rdf:resource="http://purl.org/dc/dcmitype/StillImage" /></cc:Work></rdf:RDF></metadata><defs
     id="defs74" /><sodipodi:namedview
     pagecolor="#ffffff"
     bordercolor="#666666"
     borderopacity="1"
     objecttolerance="10"
     gridtolerance="10"
     guidetolerance="10"
     inkscape:pageopacity="0"
     inkscape:pageshadow="2"
     inkscape:window-width="1848"
     inkscape:window-height="1016"
     id="namedview72"
     showgrid="false"
     inkscape:zoom="13.2"
     inkscape:cx="25"
     inkscape:cy="59.959881"
     inkscape:window-x="72"
     inkscape:window-y="27"
     inkscape:window-maximized="1"
     inkscape:current-layer="svg70" /><g
     id="g64"><path
       fill-rule="evenodd"
       clip-rule="evenodd"
       d="M7.029,40.667h35.942V30.402H31.212c-2.645,5.444-9.777,5.439-12.425,0H7.029   V40.667z M26.217,14.904v16.365h2.832V17.574c4.936,2.163,10.836-1.385,10.836-7.095c0-4.547-3.926-8.128-8.445-7.704   c-3.731-3.692-9.764-3.697-13.512-0.032c-4.273-0.103-7.811,3.503-7.811,7.736c0,5.661,5.843,9.283,10.836,7.095v13.695h2.832   V14.904l-2.418-0.996c-3.043,3.077-8.419,1.022-8.419-3.43c0-2.947,2.52-5.159,5.415-4.884l1.19-0.471   c2.728-3.082,7.604-3.063,10.286,0.072l1.344,0.47c3.028-0.597,5.871,1.691,5.871,4.812c0,4.486-5.393,6.491-8.419,3.43   L26.217,14.904z M7.029,50h35.942v-6.501H7.029V50z"
       id="path62" /></g></svg>
