<?xml version="1.0" encoding="UTF-8" standalone="no"?>
<svg
   xmlns:dc="http://purl.org/dc/elements/1.1/"
   xmlns:cc="http://creativecommons.org/ns#"
   xmlns:rdf="http://www.w3.org/1999/02/22-rdf-syntax-ns#"
   xmlns:svg="http://www.w3.org/2000/svg"
   xmlns="http://www.w3.org/2000/svg"
   xmlns:sodipodi="http://sodipodi.sourceforge.net/DTD/sodipodi-0.dtd"
   xmlns:inkscape="http://www.inkscape.org/namespaces/inkscape"
   version="1.1"
   x="0px"
   y="0px"
   viewBox="0 0 100 125"
   style="enable-background:new 0 0 100 100;"
   xml:space="preserve"
   id="svg234"
   sodipodi:docname="hidroelectricas.svg"
   inkscape:version="1.0.1 (0767f8302a, 2020-10-17)"><metadata
     id="metadata240"><rdf:RDF><cc:Work
         rdf:about=""><dc:format>image/svg+xml</dc:format><dc:type
           rdf:resource="http://purl.org/dc/dcmitype/StillImage" /></cc:Work></rdf:RDF></metadata><defs
     id="defs238" /><sodipodi:namedview
     pagecolor="#ffffff"
     bordercolor="#666666"
     borderopacity="1"
     objecttolerance="10"
     gridtolerance="10"
     guidetolerance="10"
     inkscape:pageopacity="0"
     inkscape:pageshadow="2"
     inkscape:window-width="1848"
     inkscape:window-height="1016"
     id="namedview236"
     showgrid="false"
     inkscape:zoom="6.896"
     inkscape:cx="50"
     inkscape:cy="62.5"
     inkscape:window-x="72"
     inkscape:window-y="27"
     inkscape:window-maximized="1"
     inkscape:current-layer="svg234" /><path
     d="M68.4,73.9c-3.2,3.5-8.4,3.3-10.9-0.9c-1.2-2-4.4-0.3-3.2,1.7c3.5,6.1,11.7,7.3,16.5,1.9C72.4,74.8,69.9,72.2,68.4,73.9z"
     id="path202" /><path
     d="M54,72.8c-2.7,5.3-9.5,5.3-12.6,0.5c-1.3-1.9-4.1,0.3-2.9,2.2c4.8,7.2,15,6.2,18.9-1.4C58.4,72,55,70.7,54,72.8z"
     id="path204" /><path
     d="M38,74c-1.9,3.5-6.2,3.7-9,1.1c-1.7-1.6-3.9,1.3-2.2,2.9c4.7,4.4,11.5,2.7,14.5-2.6C42.5,73.3,39.1,71.9,38,74z"
     id="path206" /><path
     d="M68.4,23.2c-3.2,3.5-8.4,3.3-10.9-0.9c-1.2-2-4.4-0.3-3.2,1.7c3.5,6.1,11.7,7.3,16.5,1.9C72.4,24.1,69.9,21.4,68.4,23.2z"
     id="path208" /><path
     d="M54,22c-2.7,5.3-9.5,5.3-12.6,0.5c-1.3-1.9-4.1,0.3-2.9,2.2c4.8,7.2,15,6.2,18.9-1.4C58.4,21.3,55,19.9,54,22z"
     id="path210" /><path
     d="M38,23.2c-1.9,3.5-6.2,3.7-9,1.1c-1.7-1.6-3.9,1.3-2.2,2.9c4.7,4.4,11.5,2.7,14.5-2.6C42.5,22.5,39.1,21.2,38,23.2z"
     id="path212" /><path
     d="M81.7,59C77,62.7,71,60.4,69.4,54.8c-0.6-2.2-4-0.8-3.3,1.4c2.2,7.9,11.5,10.7,17.8,5.7C85.8,60.4,83.5,57.5,81.7,59z"
     id="path214" /><path
     d="M65.5,55c-1.4,2.7-3.4,5.1-6.4,6c-3.8,1.2-7.8-0.5-8.6-4.6c-0.4-2.3-4-1.8-3.6,0.5c0.9,5,5.2,8.4,10.3,8.1  c5.4-0.3,9.3-4.1,11.6-8.7C69.9,54.2,66.6,52.9,65.5,55z"
     id="path216" /><path
     d="M47.1,55.8c-2.2,6.6-10.9,8-14.4,1.5c-1.1-2-4.4-0.7-3.3,1.4c4.8,9,17.8,8.4,21.1-1.5C51.2,55,47.8,53.6,47.1,55.8z"
     id="path218" /><path
     d="M29.3,57.1c-2.2,3.5-6.4,4.9-10.1,2.7c-2-1.2-4.1,1.7-2.1,2.9c5.3,3.1,11.8,1.9,15.1-3.4C33.4,57.3,30.5,55.1,29.3,57.1z"
     id="path220" /><path
     d="M81.5,41.2c-4.1,4.6-11.1,2.6-12.2-3.5c-0.4-2.3-3.9-1.4-3.5,0.9c1.5,8.7,12.3,11.8,18.2,5.2C85.6,42.1,83.1,39.5,81.5,41.2  z"
     id="path222" /><path
     d="M65.1,37.8c-0.9,7.8-11.8,7.9-12.8,0c-0.3-2.3-3.9-1.8-3.6,0.5c0.6,5,4.8,9.3,10,9.3c5.2,0,9.4-4.3,10-9.3  C69,35.9,65.4,35.5,65.1,37.8z"
     id="path224" /><path
     d="M48,38.1c-1.5,7.4-11.2,7.1-13.2,0.2c-0.6-2.2-4-0.8-3.3,1.4c3.1,10.7,17.9,9.5,20.1-1.1C52.1,36.3,48.5,35.8,48,38.1z"
     id="path226" /><path
     d="M31.5,38.4c-0.7,5.9-7.6,8.4-11.7,3.8c-1.5-1.7-4.4,0.5-2.9,2.2c6.1,6.7,17,3.6,18.2-5.6C35.4,36.5,31.8,36.1,31.5,38.4z"
     id="path228" /></svg>
